<svg xmlns="http://www.w3.org/2000/svg" viewBox="0 0 1600 900"><rect width="1600" height="900" fill="#1a1712"/>
<g opacity=".3"><rect x="0" y="0" width="1600" height="500" fill="#2a4a3a"/></g>
<g fill="#c8a25a" opacity=".35"><circle cx="250" cy="120" r="70"/><circle cx="800" cy="90" r="50"/><circle cx="1350" cy="130" r="80"/></g>
<rect x="0" y="600" width="1600" height="300" fill="#6b4526"/><rect x="0" y="600" width="1600" height="14" fill="#8a5c35"/>
<rect x="260" y="300" width="340" height="230" rx="16" fill="#111"/><rect x="275" y="315" width="310" height="200" rx="8" fill="#123526"/>
<g fill="#22c373" opacity=".7"><rect x="295" y="335" width="80" height="60" rx="6"/><rect x="390" y="335" width="80" height="60" rx="6"/><rect x="485" y="335" width="80" height="60" rx="6"/><rect x="295" y="410" width="80" height="60" rx="6"/><rect x="390" y="410" width="80" height="60" rx="6"/></g>
<rect x="400" y="530" width="60" height="60" fill="#222"/><rect x="220" y="580" width="420" height="40" rx="8" fill="#2a2a2a"/>
<rect x="900" y="470" width="220" height="140" rx="18" fill="#1b1b1b"/><rect x="950" y="230" width="120" height="260" fill="#fbf8f1"/>
<g fill="#888"><rect x="970" y="260" width="80" height="10"/><rect x="970" y="290" width="60" height="8"/><rect x="970" y="310" width="70" height="8"/><rect x="970" y="330" width="55" height="8"/><rect x="970" y="370" width="80" height="12"/></g>
<g fill="#e8e0cc"><rect x="1220" y="560" width="220" height="60" rx="6" transform="rotate(-6 1330 590)"/><rect x="1240" y="540" width="220" height="60" rx="6" fill="#c9d9b0" transform="rotate(4 1350 570)"/></g>
</svg>
