<svg xmlns="http://www.w3.org/2000/svg" viewBox="0 0 1600 900"><rect width="1600" height="900" fill="#14281f"/>
<g fill="#23493a"><rect x="0" y="0" width="1600" height="900" opacity=".4"/></g>
<g fill="#2f6b52"><rect x="100" y="140" width="1400" height="18"/><rect x="100" y="360" width="1400" height="18"/><rect x="100" y="580" width="1400" height="18"/></g>
<g fill="#c8a25a" opacity=".8"><rect x="130" y="60" width="90" height="80" rx="8"/><rect x="240" y="40" width="70" height="100" rx="8"/><rect x="330" y="70" width="110" height="70" rx="8"/><rect x="460" y="50" width="80" height="90" rx="8"/></g>
<g fill="#d94f3d" opacity=".7"><rect x="600" y="60" width="90" height="80" rx="8"/><rect x="710" y="40" width="90" height="100" rx="8"/><rect x="820" y="60" width="70" height="80" rx="8"/></g>
<g fill="#22c373" opacity=".6"><rect x="950" y="50" width="100" height="90" rx="8"/><rect x="1070" y="70" width="80" height="70" rx="8"/><rect x="1170" y="40" width="100" height="100" rx="8"/><rect x="1290" y="60" width="90" height="80" rx="8"/></g>
<g fill="#e8dcc0" opacity=".6"><circle cx="190" cy="320" r="40"/><circle cx="290" cy="320" r="40"/><circle cx="390" cy="320" r="40"/><rect x="480" y="270" width="150" height="90" rx="10"/><rect x="660" y="260" width="120" height="100" rx="10"/></g>
<g fill="#8fb3a2" opacity=".5"><rect x="850" y="250" width="60" height="110" rx="10"/><rect x="930" y="250" width="60" height="110" rx="10"/><rect x="1010" y="250" width="60" height="110" rx="10"/><rect x="1090" y="250" width="60" height="110" rx="10"/><rect x="1170" y="250" width="60" height="110" rx="10"/><rect x="1250" y="250" width="60" height="110" rx="10"/></g>
<g fill="#b5703a" opacity=".6"><rect x="150" y="470" width="200" height="110" rx="8"/><rect x="380" y="490" width="160" height="90" rx="8"/><rect x="570" y="460" width="220" height="120" rx="8"/><rect x="820" y="480" width="180" height="100" rx="8"/><rect x="1030" y="470" width="200" height="110" rx="8"/><rect x="1260" y="490" width="160" height="90" rx="8"/></g>
<rect x="0" y="760" width="1600" height="140" fill="#3a2a1a"/>
</svg>
